<svg width="226" height="57" viewBox="0 0 226 57" fill="none" xmlns="http://www.w3.org/2000/svg">
<g clip-path="url(#clip0_155_51)">
<path d="M224.882 28.7734H215.022C214.717 27.1385 214.24 25.9807 213.592 25.3318C212.538 24.2757 210.74 23.7286 208.256 23.7286C205.772 23.7286 204.107 24.1358 203.16 24.9564C202.443 25.5671 202.068 26.4196 202.068 27.4756C202.068 28.9706 204.145 30.1666 208.256 31.0827C212.951 32.1005 216.318 32.9911 218.389 33.7036C218.935 33.9072 219.412 34.079 219.749 34.2507C223.935 36.2292 226.006 39.2255 226.006 43.2397C226.006 48.1445 223.967 51.7197 219.92 53.9654C219.412 54.2389 218.935 54.4743 218.389 54.716C215.771 55.842 212.709 56.4146 209.279 56.4146C204.145 56.4146 199.99 55.4921 196.833 53.6918C194.844 52.534 193.358 51.0772 192.367 49.3214C191.375 47.5656 190.88 45.5171 190.88 43.1697H201.216C201.216 44.9382 201.864 46.3378 203.122 47.292C204.38 48.2781 206.528 48.7934 209.552 48.7934C211.833 48.7934 213.529 48.3163 214.653 47.362C215.536 46.6113 215.943 45.7907 215.943 44.8428C215.943 43.2397 213.904 41.9865 209.857 41.0958C203.802 39.7981 199.997 38.742 198.434 37.9914C194.285 36.0511 192.246 33.0548 192.246 28.9006C192.246 25.5671 193.3 22.7426 195.473 20.427C198.192 17.5324 202.271 16.1011 207.684 16.1011C212.137 16.1011 215.708 16.75 218.395 18.0096C218.63 18.1113 218.84 18.2131 219.043 18.3531C220.981 19.4027 222.442 20.8023 223.421 22.5454C224.399 24.2757 224.888 26.356 224.888 28.7734H224.882Z" fill="white"/>
<path d="M219.609 4.66321C219.609 4.45964 219.577 4.28788 219.475 4.15428C219.374 3.98252 219.24 3.88073 219.037 3.81712C218.904 3.77895 218.694 3.74714 218.389 3.70897H216.826V5.61745H218.389C218.834 5.58564 219.139 5.51567 219.31 5.3439C219.513 5.17214 219.615 4.9304 219.615 4.66321H219.609ZM220.428 3.63899C220.632 3.91254 220.733 4.2179 220.733 4.56143C220.733 5.03855 220.562 5.44569 220.225 5.78922C219.888 6.13274 219.444 6.33631 218.904 6.36812C219.139 6.46991 219.31 6.57169 219.45 6.70529L220.403 7.96489L221.153 9.22448H219.926L219.348 8.20663C218.98 7.5641 218.675 7.08062 218.395 6.84524C218.364 6.81343 218.325 6.77527 218.262 6.74346L217.449 6.50808H216.839V9.23085H215.816V2.82471H218.027C218.167 2.82471 218.3 2.85651 218.402 2.85651C218.948 2.85651 219.355 2.92649 219.628 3.02828C219.965 3.13006 220.238 3.33364 220.447 3.63899H220.428Z" fill="white"/>
<path d="M223.319 5.96081C223.319 5.07655 223.116 4.2559 222.671 3.47342C222.226 2.69095 221.616 2.08023 220.835 1.63492C220.054 1.22778 219.234 0.986035 218.421 0.986035H218.389C217.569 0.986035 216.756 1.22778 215.981 1.63492C215.193 2.08023 214.583 2.69095 214.139 3.47342C213.7 4.2559 213.459 5.07655 213.459 5.96081C213.459 6.84508 213.694 7.62755 214.139 8.41003C214.552 9.15434 215.162 9.77141 215.943 10.2104C216.724 10.6557 217.544 10.8592 218.389 10.8592H218.421C219.272 10.8592 220.085 10.6557 220.873 10.2104C221.654 9.77141 222.264 9.15434 222.671 8.41003C223.116 7.62119 223.319 6.80691 223.319 5.96081ZM224.304 5.96081C224.304 6.94686 224.062 7.93927 223.516 8.88715C223.008 9.84139 222.29 10.5539 221.343 11.0628C220.39 11.6099 219.437 11.8517 218.414 11.8517H218.383C217.366 11.8517 216.413 11.6163 215.46 11.0628C214.507 10.5539 213.796 9.83503 213.281 8.88715C212.735 7.93291 212.5 6.94686 212.5 5.96081C212.5 4.90479 212.735 3.91874 213.281 2.96449C213.827 2.01025 214.539 1.29775 215.492 0.788825C216.445 0.279897 217.398 0.0381557 218.383 0.00634766H218.414C219.399 0.00634766 220.358 0.279897 221.305 0.788825C222.258 1.30412 223.008 2.01662 223.516 2.96449C224.062 3.91874 224.304 4.90479 224.304 5.96081Z" fill="white"/>
<path d="M186.725 36.7699V55.8738H177.437V53.7618C174.305 55.8039 170.569 56.9998 166.554 56.9998H166.452C155.366 56.9299 146.357 47.8709 146.357 36.7699C146.357 25.6689 155.372 16.6164 166.452 16.5464H166.554C170.563 16.5464 174.305 17.7424 177.437 19.7781V17.5642H186.725V36.7699ZM177.443 38.882V34.6579C176.458 29.5495 171.935 25.6689 166.56 25.6689H166.459C160.372 25.7071 155.442 30.6755 155.442 36.7699C155.442 42.8644 160.372 47.8391 166.459 47.9091H166.56C171.935 47.9091 176.452 43.9967 177.443 38.8884V38.882Z" fill="white"/>
<path d="M143.13 36.7701V55.8741H133.848V53.762C130.684 55.8041 126.98 57.0001 122.965 57.0001H122.863C111.777 56.9301 102.768 47.8712 102.768 36.7701C102.768 25.6691 111.777 16.6166 122.863 16.5466H122.965C126.98 16.5466 130.684 17.7426 133.848 19.7783V4.42773H143.13V36.7701ZM133.848 38.8822V34.6581C132.863 29.5497 128.333 25.6691 122.965 25.6691H122.863C116.777 25.7073 111.847 30.6757 111.847 36.7701C111.847 42.8646 116.777 47.8393 122.863 47.9093H122.965C128.333 47.9093 132.863 43.9969 133.848 38.8886V38.8822Z" fill="white"/>
<path d="M99.1279 16.5464H89.0264V55.8738H99.1279V16.5464Z" fill="white"/>
<path d="M99.1279 4.63135H89.0264V13.5185H99.1279V4.63135Z" fill="white"/>
<path d="M84.4014 36.7701V55.8741H75.1195V53.762C71.9556 55.8041 68.22 57.0001 64.2048 57.0001H64.1031C53.0169 56.9301 44.0082 47.8712 44.0082 36.7701C44.0082 25.6691 53.0233 16.6166 64.1031 16.5466H64.2048C68.22 16.5466 71.962 17.7426 75.1195 19.7783V4.42773H84.4014V36.7701ZM75.1195 38.8822V34.6581C74.1347 29.5497 69.6113 25.6691 64.2048 25.6691H64.1031C58.0168 25.7073 53.0868 30.6757 53.0868 36.7701C53.0868 42.8646 58.0168 47.8393 64.1031 47.9093H64.2048C69.6113 47.9093 74.1347 43.9969 75.1195 38.8886V38.8822Z" fill="white"/>
<path d="M40.3615 36.7699V55.8738H31.0795V53.7618C27.9157 55.8039 24.1737 56.9998 20.1648 56.9998H20.0632C9.0151 56.9299 0 47.8709 0 36.7699C0 25.6689 9.00874 16.6164 20.0632 16.5464H20.1648C24.1737 16.5464 27.9157 17.7424 31.0795 19.7781V17.5642H40.3615V36.7699ZM31.0795 38.882V34.6579C30.0948 29.5495 25.5714 25.6689 20.1648 25.6689H20.0632C14.0087 25.7071 9.08498 30.6755 9.08498 36.7699C9.08498 42.8644 14.015 47.8391 20.0632 47.9091H20.1648C25.5714 47.9091 30.0948 43.9967 31.0795 38.8884V38.882Z" fill="white"/>
</g>
<defs>
<clipPath id="clip0_155_51">
<rect width="226" height="57" fill="white"/>
</clipPath>
</defs>
</svg>
