<svg width="218" height="71" viewBox="0 0 218 71" fill="none" xmlns="http://www.w3.org/2000/svg">
<g clip-path="url(#clip0_155_30)">
<path d="M6.34001 29.29C12.58 17.74 23.36 5.15004 36.09 0.94004C38.7 0.29004 42.18 -0.44996 44.5 1.34004C46.56 2.87004 46.84 5.48004 46.37 7.83004C45.76 10.61 43.85 14.14 40.66 14.58C40.09 14.58 39.6 14.38 39.23 13.97C38.4 13.16 38.46 11.99 38.64 10.92C39.16 8.71004 41.21 6.37004 43.57 6.06004C43.97 5.80004 43.8 5.31004 43.69 4.97004C43.38 4.48004 43 4.11004 42.43 3.99004C39.88 3.69004 37.95 5.29004 35.99 6.64004C28.56 12.61 23.17 20.29 18.63 27.94C14.93 34.82 11.78 41.93 10.86 49.96C10.41 55.79 12.26 61.5 17.44 64.31C23.06 67.29 30.33 65.27 35.96 63.74L41.13 62.15L51.07 59.2C60.5 56.45 72.3 55.83 81.5 59.48C87.06 61.8 92.79 64.97 96.42 70.44C96.42 70.58 96.42 70.76 96.25 70.73C88.36 68.58 78.09 66.45 70.27 70.18L69.9 70.09C67.53 66.29 63.52 64.18 59.42 63.36C46.16 62.08 35.26 68.36 22.8 69.92C16.48 70.5 9.71001 70.3 5.30001 65.47C-1.64999 58.53 -0.829988 46.27 2.47001 37.9C3.54001 34.95 4.87001 32.08 6.35001 29.27L6.34001 29.29Z" fill="white"/>
<path d="M24.64 33.43C27.93 27.38 32.98 20 39.97 17.78C41.84 17.36 43.85 17.53 45.28 18.77C48.28 21.77 47.12 26.9 46.1 30.43C46.1 30.63 46.27 30.86 46.47 30.89C49.14 30.81 51.3 29.56 53.23 27.73C57.38 23.09 61.82 17.02 68.57 17.74C69.83 17.95 71.06 18.67 71.72 19.85C73.43 23.24 71.75 27 69.42 29.6C68.53 30.46 67.41 31.11 66.11 30.71C65.59 30.54 65.16 30.02 64.97 29.5C64.49 27.12 65.88 24.91 67.8 23.65C68.35 23.11 70.01 23.49 69.56 22.25C69.22 21.76 68.7 21.7 68.15 21.7C64.87 23.07 62.74 26.42 60.83 29.22C58.43 32.97 56.5 36.96 55.22 41.17C54.87 42.69 54.43 44.67 55.32 46.08C55.98 46.97 57.07 47.35 58.19 47.07C61.44 45.79 64.29 43.19 66.77 40.5C72.45 33.69 75.46 25.26 83.06 19.72C85.42 18.09 88.75 16.84 91.59 18.34C92.05 18.51 92.42 19.12 92.99 18.89C93.45 18.43 93.77 17.46 94.69 17.69C96.79 17.73 99.2 17.62 101.35 17.83L101.49 18.03L100.88 19.49L89.08 43.45C88.96 43.71 88.93 44.05 88.99 44.34C89.19 44.68 89.62 44.66 89.94 44.54C91.64 43.57 92.96 41.77 94.15 40.25C95.19 38.82 96.11 37.33 96.86 35.75C97.18 35.29 97.55 34.72 98.18 34.81C98.84 34.9 99.67 34.61 100.16 35.07C99.41 37.08 98.22 38.91 97.18 40.8C93.98 45.73 89.79 51.45 83.9 52.92C82.92 53.03 81.72 53.11 80.97 52.39C79.82 51.53 79.77 50.15 79.46 48.91C79.35 48.77 79.14 48.74 78.97 48.79C76.46 51.05 73.87 53.31 70.34 52.87C69.25 52.64 68.22 51.8 67.74 50.77C66.83 49.02 67.27 46.75 67.21 44.8C67.13 44.57 66.84 44.66 66.72 44.74C62.89 48.52 58.74 51.92 53.66 52.88C51.3 53.16 49.27 52.46 47.7 50.79C43.9 45.81 46.91 39.28 48.91 34.43C49 34.2 48.97 33.88 48.68 33.83C47.3 33.94 45.98 34.16 44.66 34.36L44.2 34.88C41.11 40.61 37.76 46.68 32.2 50.94C29.9 52.6 26.48 53.73 23.78 52.2C20.97 50.27 20.73 46.82 21.08 43.64C21.75 40.03 23.06 36.67 24.62 33.43H24.64ZM33.43 33.14C31.81 36.41 30.16 39.7 30.09 43.58C30.26 44.3 30.69 45.13 31.49 45.34C32.35 45.57 33.07 45.12 33.73 44.69C36.9 42.03 39.09 38.39 40.88 34.9C41.02 34.56 41.28 34.13 41.08 33.75C39.19 33 37.36 31.7 35.9 30.06L35.58 30C35.29 30.06 35.18 30.34 34.98 30.54L33.42 33.15L33.43 33.14ZM38.36 26.5C38.47 28.22 40.07 29.72 41.59 30.3C41.96 30.42 42.56 30.71 42.88 30.25C43.46 29.16 43.81 27.96 44.1 26.75C44.39 25.17 44.63 23.05 43.11 22.01C42.59 21.72 41.82 21.69 41.27 21.95C39.54 22.81 38.3 24.55 38.35 26.5H38.36ZM77.24 39.87C76.8 41.3 76.14 42.85 76.59 44.43C76.73 44.75 77.08 44.98 77.39 45.06C78.68 45.09 79.55 43.92 80.38 43C84.16 37.76 87.05 32.12 89.65 26.38C90.08 25.18 90.78 24.06 90.75 22.71C90.72 22.42 90.44 22.22 90.21 22.08C89.64 21.82 89.09 22.22 88.63 22.45C83.54 26.37 80.79 31.98 78.24 37.31L77.23 39.86L77.24 39.87Z" fill="white"/>
<path d="M101.78 25.1403C102.91 22.9103 103.86 20.5803 105.28 18.4603C105.86 17.8303 106.75 17.8603 107.52 17.7803L113.17 17.8603L113.4 18.0903C112.45 20.3503 111.4 22.5903 110.22 24.7703C109.93 25.3403 109.33 25.8903 108.67 25.9703C106.37 26.0203 103.93 26.1503 101.75 25.9503C101.52 25.7203 101.72 25.4003 101.78 25.1503V25.1403Z" fill="white"/>
<path d="M107.45 36.62C111.38 28.48 116.12 20.63 122.83 13.71C129.34 7.22004 136.39 1.96004 144.92 0.350035C147.25 0.0100353 149.86 0.220035 151.63 1.81004C151.97 2.10004 152.37 2.39004 152.86 2.22004C158.98 -0.229965 167.48 -1.08996 173.62 1.98004C177.17 3.72004 180.55 5.94003 183.96 8.07003C184.39 8.30003 184.19 8.76004 183.96 9.02004C182 11.19 180.36 13.43 178.6 15.69C178.4 15.89 178.08 15.8 177.88 15.69L168.86 9.49004C164.65 6.63004 159.81 4.64004 154.32 5.54004C153.72 5.85004 154 6.60004 153.91 7.18004C154.03 12.81 152.04 17.71 149.32 22.18C147.16 25.3 144.65 28.57 140.97 29.61C139.36 29.95 137.81 29.46 136.84 28.16C134.16 24.07 136.53 19.09 138.49 15.45C140.74 11.5 144.23 7.78004 148 4.92004C148.09 4.78004 148.26 4.63004 148.14 4.46004C147.77 4.09004 147.14 4.31004 146.68 4.40004C140.56 6.45004 135.66 11.85 131.13 16.98C123.06 26.91 116.94 37.69 113.45 49.53C112.37 53.98 110.91 60.8 115.44 63.92C119.42 66.06 123.25 63.31 126.24 60.74C130.79 56.1 133.85 50.75 135.11 44.69C135.32 42.88 135.81 40.42 134.15 39.18C132.66 38.51 131.42 39.74 130.41 40.77C128.07 43.58 127.09 46.93 126.67 50.55C125.63 51.41 124.4 51.95 123.3 52.78C121.23 54.21 119.18 56.12 117.54 58.04C117.34 58.1 117.31 57.87 117.25 57.75C117.01 51.09 119.39 45.38 123.05 40.26C125.96 36.88 129.7 34 134.23 35.07C136.21 35.59 137.52 37.69 137.89 39.56C138.61 45.82 135.98 51.3 133.15 56.39C128.59 63.55 121.39 70.79 112.26 69.92C108.76 69.71 105.49 67.28 104.01 64.06C100.56 57.19 102.95 48.35 105.26 41.7L107.4 36.63L107.45 36.62ZM138.5 24.75C138.58 25.53 138.9 26.36 139.7 26.65C141.25 27.09 142.49 25.94 143.64 25.06C147.79 20.68 150.3 15.61 150.96 9.78004C150.96 8.92004 151.25 7.83004 150.77 7.08004C150.43 7.02004 150.05 7.16004 149.76 7.36004C146.97 9.22004 144.35 11.93 142.44 14.68C140.45 17.75 138.63 20.9 138.5 24.74V24.75Z" fill="white"/>
<path d="M144.31 44.2401C147.63 39.8601 152.04 35.0801 157.61 34.7301C159.02 34.7601 160.25 35.3401 161.11 36.5201C163.48 40.0301 161.48 44.5301 160.61 48.0901C160.52 48.4101 160.75 48.6401 160.98 48.7201C162.13 48.9001 163.45 48.7201 164.46 48.2201L164.89 47.6801C168.89 36.2701 174.84 25.6701 181.91 15.5601C186.32 9.72006 191.97 3.68006 198.53 0.860058C200.08 0.320058 202.32 -0.329942 203.81 0.820058C205.47 2.17006 205 4.53006 204.57 6.33006C204.39 7.94006 202.61 8.10006 201.43 8.47006C201.37 8.44006 201.31 8.47006 201.26 8.41006C201.29 7.38006 201.84 6.46006 202.05 5.46006C202.11 4.91006 202.2 4.46006 201.97 3.94006C201.69 3.42006 201.05 3.59006 200.62 3.74006C198.41 4.82006 196.62 6.80006 194.92 8.72006C188.58 16.0801 183.99 24.2401 179.77 32.4901C178.38 35.3601 176.94 38.1901 175.81 41.1701C175.78 41.3401 175.84 41.4601 175.98 41.5701C176.96 41.5501 177.53 40.5401 178.28 40.0301C183.87 34.9701 188.39 29.1601 192.58 23.2601C193.47 22.8301 194.51 22.8401 195.54 22.7501L195.74 22.8101C195.68 23.6101 194.99 24.2401 194.61 24.9601C189.94 31.6901 184.63 38.1301 178.18 43.9901L173.52 47.8201C172.54 48.6801 172.51 50.0001 172.02 51.0901C171.12 54.0401 170.22 57.0501 170.09 60.3001C170.12 60.8501 170.32 61.3601 170.77 61.6501C172 62.2001 172.98 61.0301 173.85 60.2301C180.16 52.9301 182.95 43.9801 190.66 37.4401C193.19 35.4401 196.53 33.7301 199.8 35.2301C200.37 35.4301 200.8 36.1801 201.49 35.8401C201.98 35.5001 202.01 34.7201 202.7 34.7501C204.97 34.7301 207.38 34.6501 209.56 34.8301C209.76 35.0001 209.62 35.2901 209.56 35.4901L208 38.6401L198.34 58.1301C197.91 59.0201 197.33 59.9601 197.38 60.9701C197.52 61.4001 197.98 61.4301 198.35 61.3501C200.16 60.3501 201.49 58.6901 202.67 57.0001C203.85 55.3401 204.81 53.5901 205.93 51.9001C206.53 51.6201 207.37 51.7301 208.03 51.8201C208.43 52.1901 207.91 52.6801 207.83 53.1101C205 58.9901 201.04 65.4001 194.86 68.6501C193.42 69.3601 191.44 70.0201 189.86 69.1501C188.6 68.2801 188.72 66.7101 188.15 65.5001C188.04 65.3301 187.75 65.3601 187.6 65.4401C185.04 67.7301 182.27 70.3001 178.69 69.3101C176.45 68.2701 176.2 65.6801 176.04 63.4701C175.93 63.3801 175.98 63.2101 175.84 63.1201L175.55 63.2301C173.04 66.2401 169.87 69.9901 165.65 69.6301C164.04 69.5101 162.64 67.9501 162.16 66.5201C160.68 61.8401 162.25 56.7001 163.3 52.2001C163.3 51.9401 163.01 51.6801 162.79 51.6501L159.26 51.7001L158.68 52.3601C156.08 57.4601 153.22 62.3901 148.73 66.6501C146.37 68.7401 143.46 70.4801 140.22 69.5201C137.53 68.3601 136.82 65.4301 136.83 62.6801C137.4 55.7401 140.52 49.8601 144.33 44.2501L144.31 44.2401ZM145.24 59.8301C145.29 60.8101 145.78 61.8101 146.78 62.1301C147.44 62.3601 148.16 62.0801 148.73 61.7901C152.04 59.3301 154 55.5501 155.8 52.1101C155.97 51.7701 156.12 51.2201 155.66 50.9601C153.94 50.0901 152.28 48.7401 150.91 47.2101C150.74 47.0401 150.42 47.0101 150.22 47.1201C148.98 48.7801 148.17 50.6201 147.3 52.4501C146.32 54.7701 145.25 57.0601 145.24 59.8201V59.8301ZM153.56 43.7201C153.67 45.4701 155.07 47.1101 156.68 47.6901C157 47.8101 157.57 47.9501 157.8 47.5501C158.78 45.3101 159.71 42.7601 159.2 40.1801C159 39.5801 158.49 38.9701 157.86 38.7701C157.23 38.6001 156.57 38.7901 156.02 39.0501C154.41 40.1101 153.63 41.8601 153.56 43.7201ZM185.2 59.0501C185.14 59.8801 184.93 60.9201 185.56 61.5501C185.9 61.9001 186.45 61.9301 186.88 61.7801C188.58 60.9001 189.67 59.0901 190.71 57.6001C194.17 52.2101 196.72 46.4501 199.09 40.6101C199.18 40.0901 199.32 39.3801 198.84 39.0301C197.44 38.3601 196.34 39.9101 195.3 40.6501C190.72 45.2001 188.29 50.7001 186 56.2301L185.19 59.0401L185.2 59.0501Z" fill="white"/>
<path d="M191.89 16.24L194.95 12.29L195.41 11.89C204.25 11.72 211.16 6.46 217.38 0.25C217.35 1.08 216.97 1.86 216.68 2.6C212.6 12.2 202.7 20.64 191.99 20.77L189.46 20.73C189 20.61 189.32 20.16 189.43 19.93L191.88 16.23L191.89 16.24Z" fill="white"/>
<path d="M203.04 66.9199C203.04 65.7199 203.95 64.8099 205.11 64.8099C206.27 64.8099 207.16 65.7199 207.16 66.9199C207.16 68.1199 206.25 69.0399 205.11 69.0399C203.97 69.0399 203.04 68.1399 203.04 66.9199ZM205.11 69.4699C206.49 69.4699 207.67 68.3999 207.67 66.9299C207.67 65.4599 206.49 64.3999 205.11 64.3999C203.73 64.3999 202.53 65.4699 202.53 66.9299C202.53 68.3899 203.71 69.4699 205.11 69.4699ZM204.57 67.1199H205.08L205.85 68.3899H206.35L205.52 67.0999C205.95 67.0499 206.28 66.8199 206.28 66.2899C206.28 65.7099 205.94 65.4599 205.25 65.4599H204.14V68.3899H204.58V67.1199H204.57ZM204.57 66.7499V65.8399H205.17C205.48 65.8399 205.81 65.9099 205.81 66.2699C205.81 66.7199 205.47 66.7499 205.1 66.7499H204.57Z" fill="white"/>
</g>
<defs>
<clipPath id="clip0_155_30">
<rect width="217.38" height="70.74" fill="white"/>
</clipPath>
</defs>
</svg>
