<svg width="19" height="20" viewBox="0 0 19 20" fill="none" xmlns="http://www.w3.org/2000/svg">
<path d="M9.24597 2.62C11.5169 2.62 11.7853 2.62692 12.6819 2.67538C13.513 2.71692 13.9646 2.8623 14.2591 2.98692C14.6583 3.15307 14.9397 3.34692 15.2342 3.65846C15.5353 3.97692 15.7185 4.27462 15.8691 4.69C15.9869 5.00846 16.1243 5.48615 16.1636 6.35846C16.2028 7.30692 16.2159 7.59077 16.2159 9.99308C16.2159 12.3954 16.2094 12.6792 16.1636 13.6277C16.1243 14.5069 15.9869 14.9846 15.8691 15.2962C15.712 15.7185 15.5287 16.0162 15.2342 16.3346C14.9397 16.6531 14.6518 16.8469 14.2591 17.0062C13.958 17.1308 13.5065 17.2762 12.6819 17.3177C11.7853 17.3592 11.5169 17.3731 9.24597 17.3731C6.975 17.3731 6.70668 17.3662 5.81007 17.3177C4.97891 17.2762 4.52734 17.1308 4.23283 17.0062C3.83362 16.84 3.5522 16.6462 3.25115 16.3346C2.95664 16.0162 2.76685 15.7185 2.61633 15.2962C2.49852 14.9777 2.36109 14.5 2.32182 13.6277C2.28255 12.6792 2.26947 12.3954 2.26947 9.99308C2.26947 7.59077 2.27601 7.30692 2.32182 6.35846C2.36109 5.47923 2.49852 5.00154 2.61633 4.69C2.7734 4.26769 2.95664 3.97 3.25115 3.65846C3.5522 3.34 3.83362 3.14615 4.23283 2.98692C4.53388 2.8623 4.98546 2.71692 5.81007 2.67538C6.70668 2.63384 6.975 2.62 9.24597 2.62ZM9.24597 1C6.93574 1 6.64778 1.01385 5.73808 1.05539C4.83493 1.09692 4.2132 1.24923 3.67 1.47077C3.10717 1.69923 2.63596 2.01077 2.16475 2.50923C1.69354 3.00769 1.39904 3.51307 1.18307 4.10154C0.973643 4.67615 0.829661 5.32692 0.790394 6.28923C0.751126 7.25154 0.738037 7.55615 0.738037 10C0.738037 12.4438 0.744582 12.7485 0.790394 13.7108C0.829661 14.6662 0.973643 15.3238 1.18307 15.8985C1.39904 16.4869 1.69354 16.9923 2.16475 17.4908C2.63596 17.9892 3.11371 18.3008 3.67 18.5292C4.2132 18.7508 4.82839 18.9031 5.73808 18.9446C6.64778 18.9862 6.93574 19 9.24597 19C11.5562 19 11.8442 18.9931 12.7539 18.9446C13.657 18.9031 14.2787 18.7508 14.8219 18.5292C15.3848 18.3008 15.856 17.9892 16.3272 17.4908C16.7984 16.9923 17.0929 16.4869 17.3089 15.8985C17.5183 15.3238 17.6623 14.6731 17.7015 13.7108C17.7408 12.7485 17.7539 12.4438 17.7539 10C17.7539 7.55615 17.7473 7.25154 17.7015 6.28923C17.6623 5.33385 17.5183 4.67615 17.3089 4.10154C17.0929 3.51307 16.7984 3.00769 16.3272 2.50923C15.856 2.01077 15.3782 1.69923 14.8219 1.47077C14.2787 1.24923 13.6635 1.09692 12.7539 1.05539C11.8442 1.01385 11.5562 1 9.24597 1Z" stroke="white" stroke-miterlimit="10"/>
<path d="M9.24603 5.38232C6.83109 5.38232 4.87427 7.45232 4.87427 10.0069C4.87427 12.5616 6.83109 14.6316 9.24603 14.6316C11.661 14.6316 13.6178 12.5616 13.6178 10.0069C13.6178 7.45232 11.661 5.38232 9.24603 5.38232ZM9.24603 13.0046C7.68188 13.0046 6.41224 11.6616 6.41224 10.0069C6.41224 8.35232 7.68188 7.00925 9.24603 7.00925C10.8102 7.00925 12.0798 8.35232 12.0798 10.0069C12.0798 11.6616 10.8102 13.0046 9.24603 13.0046Z" stroke="white" stroke-miterlimit="10"/>
<path d="M14.8088 5.19523C14.8088 5.79062 14.3506 6.27523 13.7878 6.27523C13.225 6.27523 12.7668 5.79062 12.7668 5.19523C12.7668 4.59985 13.225 4.11523 13.7878 4.11523C14.3506 4.11523 14.8088 4.59985 14.8088 5.19523Z" stroke="white" stroke-miterlimit="10"/>
</svg>
