<svg width="18" height="18" viewBox="0 0 18 18" fill="none" xmlns="http://www.w3.org/2000/svg">
<path d="M4.87183 6.18262H1.65845V17.1557H4.87183V6.18262Z" stroke="white" stroke-miterlimit="10"/>
<path d="M3.24875 4.7493C4.29588 4.7493 5.14668 3.84238 5.14668 2.72084C5.14668 1.59931 4.29588 0.692383 3.24875 0.692383C2.20162 0.692383 1.35083 1.59931 1.35083 2.72084C1.35083 3.84238 2.20162 4.7493 3.24875 4.7493Z" stroke="white" stroke-miterlimit="10"/>
<path d="M10.0092 11.4024C10.0092 9.85856 10.6833 8.93779 11.966 8.93779C13.144 8.93779 13.7134 9.81702 13.7134 11.4024V17.1624H16.9072V10.2116C16.9072 7.26933 15.3299 5.8501 13.131 5.8501C10.932 5.8501 10.0027 7.66395 10.0027 7.66395V6.18241H6.92017V17.1555H10.0027V11.3955L10.0092 11.4024Z" stroke="white" stroke-miterlimit="10"/>
</svg>
