<svg width="81" height="27" viewBox="0 0 81 27" fill="none" xmlns="http://www.w3.org/2000/svg">
<path d="M23.8002 13.9439C21.7177 15.9444 19.7041 17.8787 17.6873 19.8162C15.3887 22.0243 13.0901 24.2354 10.7821 26.4308C10.5692 26.6321 10.2717 26.8712 10.0118 26.8743C6.86135 26.9058 3.71096 26.8932 0.335082 26.8932C4.92915 22.4772 9.37604 18.1996 13.9137 13.8339C9.31654 9.27945 4.74752 4.75021 0 0.047966C0.46661 0.0259488 0.704612 0.00707695 0.945746 0.00393164C3.68277 0.00393164 6.42293 -0.0117949 9.15996 0.0196582C9.50756 0.0228035 9.94599 0.164343 10.1871 0.400241C14.6027 4.74392 18.9932 9.11275 23.39 13.4753C23.5184 13.6011 23.628 13.7458 23.8002 13.9439Z" fill="#8BFC8C"/>
<path d="M42.6005 13.9439C40.518 15.9444 38.5044 17.8787 36.4876 19.8162C34.189 22.0243 31.8904 24.2354 29.5824 26.4308C29.3695 26.6321 29.072 26.8712 28.812 26.8743C25.6616 26.9058 22.5112 26.8932 19.1354 26.8932C23.7294 22.4772 28.1763 18.1996 32.714 13.8339C28.1168 9.27945 23.5478 4.75021 18.8003 0.047966C19.2669 0.0259488 19.5049 0.00707695 19.746 0.00393164C22.4831 0.00393164 25.2232 -0.0117949 27.9602 0.0196582C28.3079 0.0228035 28.7463 0.164343 28.9874 0.400241C33.403 4.74392 37.7935 9.11275 42.1903 13.4753C42.3187 13.6011 42.4283 13.7458 42.6005 13.9439Z" fill="#8BFC8C"/>
<path d="M61.4008 13.9439C59.3183 15.9444 57.3047 17.8787 55.2879 19.8162C52.9893 22.0243 50.6907 24.2354 48.3827 26.4308C48.1698 26.6321 47.8723 26.8712 47.6123 26.8743C44.4619 26.9058 41.3115 26.8932 37.9357 26.8932C42.5297 22.4772 46.9766 18.1996 51.5143 13.8339C46.9171 9.27945 42.3481 4.75021 37.6006 0.047966C38.0672 0.0259488 38.3052 0.00707695 38.5463 0.00393164C41.2834 0.00393164 44.0235 -0.0117949 46.7605 0.0196582C47.1081 0.0228035 47.5466 0.164343 47.7877 0.400241C52.2033 4.74392 56.5938 9.11275 60.9906 13.4753C61.119 13.6011 61.2286 13.7458 61.4008 13.9439Z" fill="#8BFC8C"/>
<path d="M80.2011 13.9439C78.1186 15.9444 76.105 17.8787 74.0882 19.8162C71.7896 22.0243 69.491 24.2354 67.183 26.4308C66.9701 26.6321 66.6726 26.8712 66.4126 26.8743C63.2622 26.9058 60.1118 26.8932 56.736 26.8932C61.33 22.4772 65.7769 18.1996 70.3146 13.8339C65.7174 9.27945 61.1484 4.75021 56.4009 0.047966C56.8675 0.0259488 57.1055 0.00707695 57.3466 0.00393164C60.0837 0.00393164 62.8238 -0.0117949 65.5608 0.0196582C65.9084 0.0228035 66.3469 0.164343 66.588 0.400241C71.0036 4.74392 75.3941 9.11275 79.7909 13.4753C79.9193 13.6011 80.0289 13.7458 80.2011 13.9439Z" fill="#8BFC8C"/>
</svg>
