<svg width="233" height="55" viewBox="0 0 233 55" fill="none" xmlns="http://www.w3.org/2000/svg">
<g clip-path="url(#clip0_155_40)">
<path d="M0 19.3311H11.9748L21.064 42.9882H21.2471L29.6258 19.3311H40.773L26.6522 54.18H14.9118L0 19.3311Z" fill="white"/>
<path d="M61.8955 18.5112C72.9329 18.5112 81.8316 25.6918 81.8316 36.7445C81.8316 47.7972 72.9329 55.0071 61.8955 55.0071C50.8582 55.0071 41.9595 47.8704 41.9595 36.7445C41.9595 25.6186 50.7996 18.5112 61.8955 18.5112ZM61.8955 45.572C67.3812 45.572 70.7283 41.9781 70.7283 36.7372C70.7283 31.4963 67.3812 27.9243 61.8955 27.9243C56.4098 27.9243 53.0408 31.5183 53.0408 36.7372C53.0408 41.9561 56.3366 45.572 61.8955 45.572Z" fill="white"/>
<path d="M87.9692 0H99.0212V54.1802H87.9692V0Z" fill="white"/>
<path d="M144.276 54.18H134.111V49.5979H133.95C132.228 52.0646 127.98 54.9998 122.963 54.9998C112.344 54.9998 105.32 47.563 105.32 37.0593C105.32 27.3607 111.523 18.5039 121.711 18.5039C126.267 18.5039 130.566 19.6897 133.056 23.0567H133.217V19.3237H144.276V54.1727V54.18ZM125.263 27.9316C119.719 27.9316 116.401 31.5256 116.401 36.7445C116.401 41.9634 119.719 45.5794 125.263 45.5794C130.808 45.5794 134.118 41.9854 134.118 36.7445C134.118 31.5036 130.8 27.9316 125.263 27.9316Z" fill="white"/>
<path d="M153.666 19.331H164.798V24.9306H164.93C167.289 20.6778 170.401 18.5039 175.257 18.5039C176.539 18.5039 177.908 18.5478 178.919 18.8479V28.6782C177.388 28.2244 175.85 27.917 174.203 27.917C165.809 27.917 164.798 32.6601 164.798 39.5846V54.1653H153.666V19.331Z" fill="white"/>
<path d="M184.932 19.3311H196.014V54.18H184.932V19.3311Z" fill="white"/>
<path d="M225.288 29.3517C223.523 27.6608 220.915 26.3579 218.257 26.3579C216.426 26.3579 214.141 27.4559 214.141 29.5127C214.141 35.0683 233 30.7717 233 43.5591C233 52.4598 224.116 54.9998 216.448 54.9998C211.189 54.9998 205.828 53.7628 202.1 50.0078L208.53 43.5518C210.706 45.6306 213.657 47.1458 216.975 47.1458C219.451 47.1458 222.08 46.2089 222.08 44.3789C222.08 38.3182 203.22 43.1639 203.22 30.2373C203.22 22.0466 210.772 18.4966 218.249 18.4966C222.995 18.4966 228.232 19.6165 231.55 23.0494L225.28 29.337L225.288 29.3517Z" fill="white"/>
<path d="M184.932 0H196.014V10.8917H184.932V0Z" fill="white"/>
</g>
<defs>
<clipPath id="clip0_155_40">
<rect width="233" height="55" fill="white"/>
</clipPath>
</defs>
</svg>
